<svg xmlns="http://www.w3.org/2000/svg" width="71.302" height="71.284" viewBox="0 0 71.302 71.284">
  <g id="key" transform="translate(0 -0.067)">
    <g id="Group_154" data-name="Group 154" transform="translate(46.235 15.107)">
      <g id="Group_153" data-name="Group 153">
        <circle id="Ellipse_22" data-name="Ellipse 22" cx="4.456" cy="4.456" r="4.456"/>
      </g>
    </g>
    <g id="Group_156" data-name="Group 156" transform="translate(0 0.067)">
      <g id="Group_155" data-name="Group 155" transform="translate(0 0)">
        <path id="Path_31" data-name="Path 31" d="M70.533,23.166A40.634,40.634,0,0,0,61.771,9.39,39.7,39.7,0,0,0,48.1.8,11.2,11.2,0,0,0,36.218,3.32L25.281,14.206a11.145,11.145,0,0,0-2.325,12.355c.574,1.291,1.2,2.554,1.865,3.774L.816,54.341A2.785,2.785,0,0,0,0,56.311V68.566a2.785,2.785,0,0,0,2.785,2.785H15.04a2.785,2.785,0,0,0,2.785-2.785V63.552h5.013a2.785,2.785,0,0,0,2.785-2.785V55.753h5.013a2.785,2.785,0,1,0,0-5.57h-7.8a2.785,2.785,0,0,0-2.785,2.785v5.013H15.04a2.785,2.785,0,0,0-2.785,2.785V65.78H5.57V57.464l24.7-24.7a2.785,2.785,0,0,0,.412-3.414A45.075,45.075,0,0,1,28.046,24.3a5.544,5.544,0,0,1,1.165-6.144L40.148,7.268a5.619,5.619,0,0,1,5.96-1.263,34.1,34.1,0,0,1,11.734,7.332A35.043,35.043,0,0,1,65.348,25.2,5.531,5.531,0,0,1,64.1,31.147L53.03,42.165a5.609,5.609,0,0,1-6.13,1.195A36.152,36.152,0,0,1,41.887,40.8a2.785,2.785,0,0,0-2.914,4.748A41.745,41.745,0,0,0,44.761,48.5a11.163,11.163,0,0,0,12.2-2.39L68.029,35.1A11.1,11.1,0,0,0,70.533,23.166Z" transform="translate(0 -0.067)"/>
      </g>
    </g>
  </g>
</svg>
