<svg id="money-3" xmlns="http://www.w3.org/2000/svg" width="59.471" height="59.471" viewBox="0 0 59.471 59.471">
  <path id="Path_32" data-name="Path 32" d="M0,0V59.471H59.471V0ZM55.986,3.485V28.109H3.485V3.485ZM10.454,45.532H21.106a8.787,8.787,0,0,0,1.608,3.485H10.454Zm14.272,0H34.744a5.343,5.343,0,0,1-10.018,0Zm13.638,0H49.017v3.485H36.756A8.787,8.787,0,0,0,38.364,45.532ZM3.485,42.048V31.594H6.969v6.969H52.5V31.594h3.485V42.048ZM49.017,31.594v3.485H36.756a8.787,8.787,0,0,0,1.608-3.485ZM29.735,35.078a5.352,5.352,0,0,1-5.009-3.485H34.744A5.352,5.352,0,0,1,29.735,35.078Zm-8.629-3.485a8.787,8.787,0,0,0,1.608,3.485H10.454V31.594ZM3.485,55.986V45.532H6.969V52.5H52.5V45.532h3.485V55.986Zm0,0"/>
  <path id="Path_33" data-name="Path 33" d="M105.532,77.655V60H60V77.655ZM77.423,68.828a5.343,5.343,0,1,1,5.343,5.343A5.349,5.349,0,0,1,77.423,68.828Zm24.625,5.343H89.787a8.8,8.8,0,0,0,0-10.686h12.261ZM63.485,63.485H75.745a8.8,8.8,0,0,0,0,10.686H63.485Zm0,0" transform="translate(-53.031 -53.031)"/>
  <path id="Path_34" data-name="Path 34" d="M120,121h3.485v3.485H120Zm0,0" transform="translate(-106.062 -106.945)"/>
  <path id="Path_35" data-name="Path 35" d="M362,121h3.485v3.485H362Zm0,0" transform="translate(-319.952 -106.945)"/>
</svg>
