<svg xmlns="http://www.w3.org/2000/svg" width="18.378" height="18.405" viewBox="0 0 18.378 18.405">
  <g id="phone-call" transform="translate(-0.344 0)">
    <g id="Group_42" data-name="Group 42" transform="translate(0.344 0)">
      <path id="Path_24" data-name="Path 24" d="M14.877,37.743a1.81,1.81,0,0,0-1.313-.6,1.872,1.872,0,0,0-1.328.6l-1.227,1.224c-.1-.054-.2-.1-.3-.155-.14-.07-.272-.136-.385-.206a13.341,13.341,0,0,1-3.2-2.913,7.871,7.871,0,0,1-1.049-1.655c.319-.291.614-.594.9-.886.109-.109.218-.221.326-.33a1.782,1.782,0,0,0,0-2.688l-1.06-1.06c-.12-.12-.245-.245-.361-.369-.233-.241-.478-.489-.73-.723a1.839,1.839,0,0,0-1.3-.571,1.9,1.9,0,0,0-1.321.571l-.008.008L1.2,29.317A2.842,2.842,0,0,0,.36,31.123a6.81,6.81,0,0,0,.5,2.882,16.725,16.725,0,0,0,2.972,4.957,18.28,18.28,0,0,0,6.087,4.766,9.484,9.484,0,0,0,3.418,1.01c.082,0,.167.008.245.008a2.927,2.927,0,0,0,2.241-.963c0-.008.012-.012.016-.019a8.832,8.832,0,0,1,.68-.7c.167-.159.338-.326.5-.5a1.938,1.938,0,0,0,.587-1.344,1.867,1.867,0,0,0-.6-1.332Zm1.391,4.09s0,0,0,0c-.151.163-.307.311-.474.474a10.216,10.216,0,0,0-.75.777,1.873,1.873,0,0,1-1.461.618c-.058,0-.12,0-.179,0a8.425,8.425,0,0,1-3.03-.909A17.255,17.255,0,0,1,4.641,38.3a15.77,15.77,0,0,1-2.8-4.657,5.546,5.546,0,0,1-.435-2.432,1.783,1.783,0,0,1,.536-1.154L3.27,28.731a.883.883,0,0,1,.59-.276.831.831,0,0,1,.567.272l.012.012c.237.221.462.451.7.7.12.124.245.249.369.377l1.06,1.06a.741.741,0,0,1,0,1.2c-.113.113-.221.225-.334.334-.326.334-.637.645-.975.948-.008.008-.016.012-.019.019a.792.792,0,0,0-.2.882l.012.035A8.514,8.514,0,0,0,6.3,36.34l0,0a14.258,14.258,0,0,0,3.449,3.139,5.3,5.3,0,0,0,.478.26c.14.07.272.136.385.206.016.008.031.019.047.027a.842.842,0,0,0,.385.1.831.831,0,0,0,.59-.268l1.328-1.328a.879.879,0,0,1,.587-.291.791.791,0,0,1,.559.284l.008.008,2.14,2.14A.768.768,0,0,1,16.267,41.833Z" transform="translate(-0.344 -26.341)"/>
      <path id="Path_25" data-name="Path 25" d="M245.375,86.966a5,5,0,0,1,4.071,4.071.521.521,0,0,0,.517.435.692.692,0,0,0,.089-.008.525.525,0,0,0,.431-.606,6.045,6.045,0,0,0-4.926-4.926.527.527,0,0,0-.606.427A.519.519,0,0,0,245.375,86.966Z" transform="translate(-235.442 -82.588)"/>
      <path id="Path_26" data-name="Path 26" d="M257.5,8.119A9.954,9.954,0,0,0,249.384.008a.524.524,0,1,0-.171,1.033,8.891,8.891,0,0,1,7.248,7.248.521.521,0,0,0,.517.435.693.693,0,0,0,.089-.008A.515.515,0,0,0,257.5,8.119Z" transform="translate(-239.125 0)"/>
    </g>
  </g>
</svg>
