<svg xmlns="http://www.w3.org/2000/svg" width="79.854" height="75.284" viewBox="0 0 79.854 75.284">
  <g id="piggy-bank" transform="translate(0 -13.951)">
    <path id="Path_36" data-name="Path 36" d="M73.974,40.858H72.811a32.822,32.822,0,0,0-9.5-13.118,8.625,8.625,0,0,1,1.408-7.026,4.371,4.371,0,0,0,.131-4.487A4.416,4.416,0,0,0,61,13.951c-.18,0-.377.016-.557.033a17.785,17.785,0,0,0-11.791,5.945,32.956,32.956,0,0,0-6.567-1.114,44.332,44.332,0,0,0-4.667-.262,39.942,39.942,0,0,0-26.35,9.564A30.977,30.977,0,0,0,0,51.568,29.154,29.154,0,0,0,.8,58.4c.016.049.016.1.033.131l.016.082a31.319,31.319,0,0,0,2.457,6.583,34.72,34.72,0,0,0,6.305,9.515,14.909,14.909,0,0,1,3.963,9.466v.966a2.543,2.543,0,0,0,.049.508,4.226,4.226,0,0,0,4.16,3.587h12.2a4.208,4.208,0,0,0,4.209-4.209v-.557a43.007,43.007,0,0,0,5.241.066v.491a4.208,4.208,0,0,0,4.209,4.209h12.2a4.208,4.208,0,0,0,4.209-4.209V82.046a9.849,9.849,0,0,1,3.374-6.764c.147-.131.311-.262.459-.393l.033-.033a.383.383,0,0,0,.115-.115,32.6,32.6,0,0,0,8.942-12.97h.966a5.92,5.92,0,0,0,5.912-5.912V46.737A5.854,5.854,0,0,0,73.974,40.858ZM61,18.356h0l-.016-.016v.016h0l-.278-2.194ZM75.464,55.876a1.5,1.5,0,0,1-1.49,1.49H71.419a2.217,2.217,0,0,0-2.113,1.556,27.979,27.979,0,0,1-8.254,12.594l-.033.033L61,71.565l-.442.393-.049.049a14.24,14.24,0,0,0-4.848,9.973v2.85H43.873V82.16a2.22,2.22,0,0,0-2.44-2.194,36.805,36.805,0,0,1-4.012.213,38.136,38.136,0,0,1-5.126-.344,2.2,2.2,0,0,0-2.506,2.194v2.8H18.014v-.8a19.371,19.371,0,0,0-5.208-12.4A29.937,29.937,0,0,1,7.32,63.294c-.016-.033-.033-.049-.033-.082a25.783,25.783,0,0,1-2.129-5.666c0-.016-.016-.033-.016-.049v-.033a25.538,25.538,0,0,1-.7-5.879c0-15.771,14.8-28.594,33-28.594a40.337,40.337,0,0,1,4.225.229.208.208,0,0,1,.1.016c1.834.115,5.241.59,6.6,1.327a2.219,2.219,0,0,0,2.882-.7c1.425-2.113,4.274-4.782,9.744-5.453a13.063,13.063,0,0,0-1.9,10.629,2.252,2.252,0,0,0,.819,1.654,28.3,28.3,0,0,1,9.269,13.1,2.218,2.218,0,0,0,2.1,1.523H73.99a1.5,1.5,0,0,1,1.49,1.49v9.073h-.016Z" transform="translate(0 0)"/>
  </g>
</svg>
