<svg xmlns="http://www.w3.org/2000/svg" width="25.356" height="23.865" viewBox="0 0 25.356 23.865">
  <g id="shopping-cart-of-checkered-design" transform="translate(0 0)">
    <path id="Path_23" data-name="Path 23" d="M25.2,17.679a.814.814,0,0,0-.657-.334H6.237a.79.79,0,0,0-.1.007L5.379,15.18a.814.814,0,0,0-.471-.491L1.111,13.2a.814.814,0,0,0-.6,1.515l3.448,1.355L8.185,28.233a.674.674,0,0,0-.416.408l-1.22,3.39a.678.678,0,0,0,.638.908h.627a2.441,2.441,0,1,0,3.628,0h5.321a2.441,2.441,0,1,0,3.628,0h.762a.678.678,0,0,0,0-1.356h-13l.756-2.1a.806.806,0,0,0,.313.065H21.153a.813.813,0,0,0,.775-.565l3.39-10.577A.813.813,0,0,0,25.2,17.679ZM9.627,35.65a1.085,1.085,0,1,1,1.085-1.085A1.086,1.086,0,0,1,9.627,35.65Zm8.949,0a1.085,1.085,0,1,1,1.085-1.085A1.086,1.086,0,0,1,18.577,35.65ZM22.841,20.8H18.69V18.972h4.738Zm-1.2,3.729H18.69v-2.1h3.63Zm-8.335,0v-2.1h3.752v2.1Zm3.752,1.627v1.763H13.311V26.158ZM7.894,22.429h3.79v2.1H8.623ZM13.311,20.8V18.972h3.752V20.8Zm-1.627-1.831V20.8H7.329l-.635-1.831Zm-2.5,7.187h2.5v1.763H9.8Zm9.5,1.763V26.159h2.435l-.565,1.763Z" transform="translate(0 -13.141)"/>
  </g>
</svg>
