<svg xmlns="http://www.w3.org/2000/svg" width="19.422" height="18.544" viewBox="0 0 19.422 18.544">
  <g id="star" transform="translate(2 -14.011)">
    <path id="Path_22" data-name="Path 22" d="M19.395,18.019a.542.542,0,0,0-.434-.367L12.9,16.791,10.175,11.31a.54.54,0,0,0-.482-.3h0a.537.537,0,0,0-.482.3l-2.691,5.5-6.059.9a.542.542,0,0,0-.434.367.532.532,0,0,0,.14.55l4.4,4.261L3.546,28.925a.541.541,0,0,0,.53.63.512.512,0,0,0,.251-.064l5.409-2.866,5.425,2.834a.55.55,0,0,0,.247.06h0a.541.541,0,0,0,.538-.538.421.421,0,0,0-.016-.124l-1.048-6,4.369-4.285A.527.527,0,0,0,19.395,18.019Zm-5.461,4.269a.532.532,0,0,0-.151.478L14.7,28,9.984,25.541a.545.545,0,0,0-.5,0l-4.7,2.487.881-5.242a.538.538,0,0,0-.155-.474L1.7,18.613l5.258-.781a.534.534,0,0,0,.4-.295L9.7,12.765l2.368,4.759a.548.548,0,0,0,.407.295l5.262.749Z" transform="translate(-2 3)" fill="#a7a7a7"/>
  </g>
</svg>
